<svg xmlns="http://www.w3.org/2000/svg" viewBox="0 0 15.594 15.566">
  <defs>
    <style>
      .cls-1 {
        fill: #fc6;
        stroke: #fc6;
        stroke-width: 0.5px;
      }
    </style>
  </defs>
  <g id="phone" transform="translate(0.279 0.25)">
    <path id="Path_232" data-name="Path 232" class="cls-1" d="M12.109,15.066A6.471,6.471,0,0,1,9.892,14.6,16.629,16.629,0,0,1,4.3,10.766,16.642,16.642,0,0,1,.47,5.173c-.626-1.66-.627-3.022,0-3.645.09-.09.181-.186.275-.285A2.951,2.951,0,0,1,2.806,0,2.471,2.471,0,0,1,4.545,1.115c1.722,2.142.946,2.9.047,3.79l-.159.157c-.147.147-.425.828,2.159,3.411A14.325,14.325,0,0,0,8.73,10.307c.362.235,1.009.591,1.274.325l.16-.161c.884-.9,1.647-1.67,3.787.05a2.469,2.469,0,0,1,1.114,1.74,2.936,2.936,0,0,1-1.243,2.065c-.1.094-.2.185-.285.275A1.974,1.974,0,0,1,12.109,15.066ZM2.745.507c-.606,0-1.152.576-1.636,1.085-.1.1-.192.2-.284.294C.36,2.35.407,3.57.944,4.995a16.132,16.132,0,0,0,3.715,5.414,16.12,16.12,0,0,0,5.413,3.713c1.424.538,2.644.584,3.108.12.093-.093.192-.187.294-.284.52-.495,1.111-1.055,1.085-1.677a2.049,2.049,0,0,0-.925-1.366c-1.783-1.434-2.282-.928-3.109-.089l-.162.164c-.4.4-1.037.308-1.909-.258a14.8,14.8,0,0,1-2.219-1.9C4.091,6.687,3.405,5.375,4.076,4.7l.162-.16c.841-.827,1.348-1.326-.087-3.11A2.056,2.056,0,0,0,2.785.507Z" transform="translate(0 0)"/>
  </g>
</svg>
