<svg xmlns="http://www.w3.org/2000/svg" viewBox="0 0 23.121 21.387">
  <defs>
    <style>
      .cls-1 {
        fill: #fff;
      }
    </style>
  </defs>
  <path id="qoute" class="cls-1" d="M8.526,12.138v9.248H0v-7.37c0-3.9.434-6.792,1.445-8.67A11.958,11.958,0,0,1,7.37,0L9.393,3.179A7.59,7.59,0,0,0,5.78,6.214a10.918,10.918,0,0,0-1.3,5.925Zm13.872,0v9.248H13.872v-7.37c0-4.046.434-6.792,1.445-8.67A11.958,11.958,0,0,1,21.242,0l1.879,3.179a7.59,7.59,0,0,0-3.613,3.035,14.414,14.414,0,0,0-1.3,5.925Z"/>
</svg>
